<?xml version="1.0" encoding="UTF-8"?>
<svg id="Layer_1" data-name="Layer 1" xmlns="http://www.w3.org/2000/svg" viewBox="0 0 48 48">
  <defs>
    <style>
      .cls-1 {
        fill: #ad833b;
      }
    </style>
  </defs>
  <path class="cls-1" d="M43.93,28.23l1.93,1.9s-5.7-1.01-11.78-.08c-4.73.72-9.23,2.87-9.23,2.87,7.94-5.96,19.08-4.69,19.08-4.69ZM25.05,31.6s2.29-1.7,6.76-3.4c5.38-2.04,11.23-1.64,11.23-1.64l-1.94-1.74s-9.22-.41-16.06,6.78ZM13.92,30.04c4.73.72,9.23,2.87,9.23,2.87-7.94-5.96-19.08-4.69-19.08-4.69l-1.93,1.9s5.7-1.01,11.78-.08ZM46.82,31.46c-12.82-2.19-20.31,1.41-22.82,2.95-2.51-1.54-10-5.14-22.82-2.95l-1.18,1.77c.26-.04,1.96-.35,2.22-.39,14.82-2.29,21.76,3.4,21.78,3.42.02-.02,6.96-5.71,21.78-3.42.26.04,1.95.35,2.22.39l-1.18-1.77ZM16.19,28.2c4.48,1.7,6.76,3.4,6.76,3.4-6.84-7.19-16.06-6.78-16.06-6.78l-1.94,1.74s5.85-.41,11.23,1.64Z"/>
  <path class="cls-1" d="M23.59,30.42c.19.32.31.55.36.67,0,.05,0,.09,0,.09,0,0,0-.01.01-.03,0,.02.01.03.01.03,0,0,0-.03,0-.09.26-.58,2.04-4.09,7.86-6.18,3.79-1.28,7.27-1.4,7.27-1.4l-1.9-1.39s0,0-.02,0h-9.9s-1.22-2.47-1.22-2.47c-.18-.58-.59-1.06-1.03-1.48-.44-.42-.99-.73-1.59-.79-.65-.07-1.32.17-1.79.63-.13.13-.24.3-.4.38-.1.05-.2.11-.28.19-.06.06-.1.14-.13.22-.09.25-.12.51-.01.77.18-.18.37-.3.61-.31.17,0,.34.02.48.11.12.08.19.23.23.38l-2.35,2.36h-9.38s-.01,0-.01,0l-1.88,1.42s3.35.06,7.08,1.22c4.4,1.46,6.6,3.74,7.61,5.15M23.65,12.82h-1.13l.91.66-.35,1.07.91-.66.91.66-.35-1.07.91-.66h-1.13l-.35-1.07-.35,1.07ZM19.2,14.88h-1.13l.91.66-.35,1.07.91-.66.91.66-.35-1.07.91-.66h-1.13l-.35-1.07-.35,1.07ZM28.09,14.88h-1.13l.91.66-.35,1.07.91-.66.91.66-.35-1.07.91-.66h-1.13l-.35-1.07-.35,1.07ZM14.7,17.15h-1.13l.91.66-.35,1.07.91-.66.91.66-.35-1.07.91-.66h-1.13l-.35-1.07-.35,1.07ZM32.31,17.15h-1.13l.91.66-.35,1.07.91-.66.91.66-.35-1.07.91-.66h-1.13l-.35-1.07-.35,1.07Z"/>
</svg>